HIERARCHY
ROOT Hips
{
     OFFSET 1.88212 96.90440 -13.34250
     CHANNELS 6 Xposition Yposition Zposition Zrotation Xrotation Yrotation
     JOINT Spine
     {
          OFFSET 0.00000 11.89050 0.00000
          CHANNELS 3 Zrotation Xrotation Yrotation
          JOINT Spine1
          {
               OFFSET -0.00000 25.65740 0.12766
               CHANNELS 3 Zrotation Xrotation Yrotation
               JOINT HEad
               {
                    OFFSET 0.00000 8.73416 0.01134
                    CHANNELS 3 Zrotation Xrotation Yrotation
                    End Site
                    {
                         OFFSET -0.29000 12.77420 2.51395
                    }
               }
               JOINT LeftShoulder1
               {
                    OFFSET 8.99000 -0.36225 -0.22000
                    CHANNELS 3 Zrotation Xrotation Yrotation
                    JOINT LeftArm
                    {
                         OFFSET 10.28270 -0.00338 0.32212
                         CHANNELS 3 Zrotation Xrotation Yrotation
                         JOINT LeftForeArm
                         {
                              OFFSET 32.76690 0.09914 -1.42434
                              CHANNELS 3 Zrotation Xrotation Yrotation
                              JOINT LeftHand
                              {
                                   OFFSET 27.56430 0.08536 1.02216
                                   CHANNELS 3 Zrotation Xrotation Yrotation
                                   End Site
                                   {
                                        OFFSET 16.74430 -0.60000 1.50291
                                   }
                              }
                         }
                    }
               }
               JOINT RightShoulder
               {
                    OFFSET -8.99000 -0.36225 -0.22000
                    CHANNELS 3 Zrotation Xrotation Yrotation
                    JOINT RightArm
                    {
                         OFFSET -10.28270 -0.00338 0.32212
                         CHANNELS 3 Zrotation Xrotation Yrotation
                         JOINT RightForeArm
                         {
                              OFFSET -32.89710 0.09914 -1.42434
                              CHANNELS 3 Zrotation Xrotation Yrotation
                              JOINT RightHand
                              {
                                   OFFSET -27.49210 0.08536 1.02216
                                   CHANNELS 3 Zrotation Xrotation Yrotation
                                   End Site
                                   {
                                        OFFSET -16.63120 -0.60000 1.50291
                                   }
                              }
                         }
                    }
               }
          }
     }
     JOINT LeftUpLeg
     {
          OFFSET 8.94580 -8.66707 0.10165
          CHANNELS 3 Zrotation Xrotation Yrotation
          JOINT LeftLeg
          {
               OFFSET 0.00000 -44.42270 1.37270
               CHANNELS 3 Zrotation Xrotation Yrotation
               JOINT LeftFoot
               {
                    OFFSET -0.25355 -42.09240 -1.46059
                    CHANNELS 3 Zrotation Xrotation Yrotation
                    JOINT LeftToes
                    {
                         OFFSET -0.04000 -4.41509 8.49910
                         CHANNELS 3 Zrotation Xrotation Yrotation
                         End Site
                         {
                              OFFSET 0.08000 -0.04745 9.77979
                         }
                    }
               }
          }
     }
     JOINT RightUpLeg
     {
          OFFSET -8.94580 -8.66707 0.10165
          CHANNELS 3 Zrotation Xrotation Yrotation
          JOINT RightLeg
          {
               OFFSET 0.00000 -44.42270 1.37270
               CHANNELS 3 Zrotation Xrotation Yrotation
               JOINT RightFoot
               {
                    OFFSET 0.25355 -42.09240 -1.46059
                    CHANNELS 3 Zrotation Xrotation Yrotation
                    JOINT RightToes
                    {
                         OFFSET 0.04000 -4.41509 8.49910
                         CHANNELS 3 Zrotation Xrotation Yrotation
                         End Site
                         {
                              OFFSET -0.08000 -0.13745 9.77979
                         }
                    }
               }
          }
     }
}
MOTION
Frames: 17
Frame Time: 0.01667
20.64394 88.58325 -48.02708 10.65498 6.52587 127.45885 -6.28961 18.40315 -2.82336 -0.04955 0.12124 0.02296 -25.00522 26.59249 25.57927 -9.53593 15.70813 6.33571 -149.46118 -66.48619 -127.83326 -21.95737 64.34670 -93.70631 17.20044 4.90272 -7.52196 12.76850 18.57240 4.91344 76.44557 3.90994 73.34061 6.01071 25.34597 88.52180 16.05486 14.68955 9.59683 17.07246 -4.09131 -27.22924 -23.29053 -2.13384 68.88536 -12.61052 -0.04082 0.00146 24.49170 -4.71391 -49.50333 -29.59389 15.82631 14.96501 40.43119 -2.06347 -38.55257 -23.84219 0.01465 0.01393 5.54184 -24.61235 14.94030 
20.35882 88.75739 -49.28167 10.75538 6.37244 126.77734 -6.16736 19.90869 -0.71459 -0.04844 0.11162 0.00826 -24.43634 25.91551 23.55361 -8.89569 14.34532 4.37296 -149.11044 -66.63544 -127.10844 -21.53281 64.21803 -93.74524 17.70725 3.60903 -7.89706 13.34703 16.56289 3.21194 76.64762 3.88191 72.99763 4.78435 25.59150 89.84479 16.01698 14.29068 9.72672 17.22092 -3.92813 -28.89756 -24.79621 -3.19215 73.66814 -10.97872 -0.04472 0.01662 23.24577 -7.67057 -52.00441 -29.89965 15.90957 14.54655 41.04155 -2.41493 -37.19176 -24.83473 0.01636 0.01242 5.62556 -24.29505 14.61413 
19.95497 88.90871 -50.44019 10.89429 6.32376 126.20867 -6.27784 21.32291 1.15173 -0.00999 0.00299 -0.01451 -23.80417 25.39176 21.79168 -8.27319 13.26856 2.74298 -148.45349 -66.77746 -126.13369 -21.20260 63.96718 -93.83391 17.00332 5.18111 -7.81412 13.91667 14.92763 1.68596 76.92282 3.75834 72.59766 3.65759 25.89486 91.34444 15.90287 13.85660 9.91724 17.23001 -3.73347 -29.16993 -26.11992 -3.97449 76.64838 -9.17831 -0.04349 0.01802 21.93932 -10.25820 -54.18929 -30.08486 15.76847 14.13681 41.65097 -2.42918 -36.15095 -25.81362 0.01814 0.01138 5.74073 -23.98549 14.35304 
19.43194 89.03858 -51.47464 11.05676 6.35229 125.74796 -6.54821 22.61794 2.76577 -0.00498 -0.00304 -0.01645 -23.03100 24.84189 20.18180 -7.59271 12.26689 1.37567 -147.59190 -66.89863 -124.99601 -20.95693 63.62447 -93.99078 17.22521 4.64118 -7.94535 14.52166 13.44990 0.37832 77.24110 3.54241 72.19400 2.62223 26.20096 92.94597 15.91338 13.52962 9.85686 17.12582 -3.45765 -28.18554 -27.26159 -4.29370 78.01028 -7.35875 -0.03758 0.01754 20.58216 -12.52931 -56.07949 -30.20845 15.40487 13.74224 42.18829 -2.09935 -35.39758 -26.72524 0.01985 0.01095 5.93793 -23.66038 14.10821 
18.81664 89.14727 -52.38035 11.22536 6.42573 125.38835 -6.91515 23.78133 4.12762 -0.00297 -0.00312 -0.01627 -22.20532 24.32890 18.78148 -6.89831 11.40517 0.26544 -146.66437 -66.97731 -123.81951 -20.75502 63.27405 -94.22160 16.72194 5.74483 -7.79723 15.10716 12.19941 -0.69231 77.59387 3.23387 71.83453 1.67132 26.47207 94.57539 15.91052 13.20627 9.83633 16.91309 -3.08431 -26.06593 -28.18188 -4.10071 77.92500 -5.56190 -0.03083 0.01594 19.19403 -14.46386 -57.70008 -30.30866 14.83702 13.36642 42.63489 -1.45182 -34.87393 -27.48374 0.02129 0.01084 6.15990 -23.31315 13.89885 
18.14721 89.24391 -53.16199 11.38455 6.51442 125.11848 -7.32744 24.80523 5.24808 -0.00145 -0.00255 -0.01545 -21.35452 23.84380 17.58383 -6.19374 10.66440 -0.60920 -145.78842 -66.99286 -122.72015 -20.60726 62.94416 -94.49285 16.82514 5.62642 -7.77152 15.64666 11.15629 -1.51667 77.98398 2.84200 71.55933 0.79795 26.69106 96.16080 15.99203 12.94555 9.67854 16.58419 -2.61507 -22.91530 -28.82390 -3.41230 76.54304 -3.78881 -0.02470 0.01357 17.78853 -16.04231 -59.08055 -30.46701 14.15002 13.03008 42.61098 -0.67711 -34.48710 -27.86022 0.00400 0.00086 6.52535 -22.62857 13.91099 
17.46761 89.33540 -53.83298 11.53014 6.59488 124.94449 -7.73382 25.69452 6.12479 -0.00030 -0.00172 -0.01420 -20.49607 23.38059 16.57587 -5.48948 10.02710 -1.27251 -145.03014 -66.91985 -121.77114 -20.47876 62.67693 -94.79034 16.51819 6.45327 -7.58101 16.12181 10.29947 -2.10489 78.41900 2.38858 71.39862 -0.00245 26.85476 97.64851 16.07179 12.68281 9.56642 16.34481 -2.31887 -19.97707 -29.42193 -2.53147 75.06114 -2.21318 -0.01814 0.01065 16.43262 -17.34382 -60.21767 -30.65091 13.23763 12.71921 43.86153 2.04930 -33.88665 -31.51785 0.15312 0.03744 9.67476 -23.91839 12.69374 
16.82030 89.42480 -54.40820 11.66286 6.65382 124.87553 -8.09603 26.45907 6.75881 0.00045 -0.00078 -0.01265 -19.64076 22.94110 15.74221 -4.79876 9.48125 -1.73245 -144.38867 -66.73920 -120.98862 -20.35566 62.46813 -95.09579 16.61247 6.55388 -7.46315 16.53045 9.60985 -2.48594 78.89841 1.90471 71.36811 -0.73528 26.97245 99.00368 16.19169 12.45011 9.38695 16.18754 -2.13850 -17.28068 -29.95706 -1.53599 73.49596 -0.81203 -0.01264 0.00856 15.15492 -18.39540 -61.12157 -30.86136 12.03729 12.42955 45.64000 5.97245 -33.47657 -30.08417 0.07105 0.08917 7.60480 -25.87569 10.81787 
16.23518 89.51303 -54.90203 11.78558 6.68681 124.91820 -8.39076 27.10937 7.15987 0.00084 0.00014 -0.01096 -18.79412 22.53310 15.06509 -4.14066 9.01965 -1.99894 -143.81851 -66.43810 -120.34308 -20.20525 62.31871 -95.40890 16.47424 7.17078 -7.23624 16.88344 9.06985 -2.69877 79.41116 1.42120 71.46796 -1.40864 27.05762 100.21555 16.29706 12.22228 9.25089 16.09616 -2.03441 -14.84712 -30.41649 -0.46949 71.86760 0.43504 -0.00845 0.00710 13.96302 -19.22515 -61.79762 -31.06633 10.53751 12.15593 47.24137 10.66843 -32.94378 -30.03105 0.07727 0.07569 7.14041 -28.04352 8.49179 
15.71409 89.60430 -55.32213 11.89762 6.69077 125.06881 -8.60769 27.64949 7.35163 0.00097 0.00097 -0.00928 -17.95948 22.16606 14.52403 -3.53006 8.63676 -2.08629 -143.26793 -66.01725 -119.79226 -20.01505 62.20514 -95.72948 16.57931 7.33071 -7.04724 17.19484 8.66273 -2.77597 79.94085 0.95511 71.68629 -2.03583 27.12260 101.29017 16.40183 12.02959 9.09161 16.05204 -1.98893 -12.67878 -30.78759 0.63900 70.19660 1.54939 -0.00531 0.00594 12.85479 -19.86016 -62.25686 -31.23611 8.87726 11.90397 47.98392 13.74274 -32.80212 -29.26418 -0.00787 -0.00314 6.32414 -28.52441 7.44127 
15.23941 89.70665 -55.67038 11.99568 6.66363 125.31697 -8.74347 28.08191 7.36461 0.00109 0.00158 -0.00769 -17.14121 21.84720 14.09645 -2.97371 8.32580 -2.02239 -142.71387 -65.48568 -119.30428 -19.76585 62.11662 -96.06987 16.53197 7.76318 -6.77918 17.47328 8.37144 -2.73590 80.47335 0.50540 72.00578 -2.63340 27.17313 102.24572 16.47257 11.86427 8.97359 16.03493 -2.00424 -10.76550 -31.05640 1.75956 68.50590 2.56084 -0.00296 0.00485 11.82457 -20.32430 -62.52235 -31.35458 7.19623 11.68723 48.25368 15.90972 -32.87277 -29.02193 0.00634 -0.00297 6.25039 -28.38565 7.05273 
14.79150 89.82774 -55.94692 12.07536 6.60545 125.65038 -8.79756 28.41140 7.22886 0.00124 0.00218 -0.00627 -16.34582 21.57937 13.75962 -2.46925 8.07786 -1.84193 -142.17130 -64.85893 -118.87169 -19.45415 62.04224 -96.43786 16.61600 7.90875 -6.53203 17.71709 8.17842 -2.59149 81.00322 0.06372 72.41029 -3.21632 27.20923 103.10349 16.52373 11.73780 8.84354 16.02473 -2.09147 -9.09352 -31.20991 2.85604 66.81944 3.50354 -0.00116 0.00374 10.86756 -20.63030 -62.62686 -31.41320 5.60034 11.52060 48.25114 17.55519 -33.05833 -28.57824 0.01166 -0.00085 6.15060 -27.92640 7.06723 
14.36002 89.97006 -56.15319 12.13234 6.51889 126.05790 -8.77099 28.64573 6.97078 0.00145 0.00278 -0.00496 -15.58128 21.36182 13.49241 -2.01542 7.88400 -1.57766 -141.65973 -64.14993 -118.48698 -19.07498 61.98644 -96.84101 16.60675 8.19134 -6.22543 17.91869 8.06649 -2.35586 81.53046 -0.37896 72.88668 -3.79541 27.22873 103.88126 16.55257 11.63610 8.73287 16.00470 -2.25825 -7.65115 -31.23972 3.89084 65.15787 4.40533 0.00027 0.00258 9.98117 -20.77769 -62.60114 -31.40871 4.16178 11.41593 48.09379 18.90100 -33.29290 -28.20233 0.01574 0.00164 6.24557 -27.36704 7.30597 
13.94589 90.13118 -56.29295 12.16348 6.40893 126.53085 -8.66629 28.79491 6.61294 0.00167 0.00342 -0.00373 -14.85535 21.19183 13.27643 -1.61300 7.73572 -1.25404 -141.18372 -63.36998 -118.13168 -18.63407 61.95053 -97.27837 16.68614 8.28767 -5.93111 18.07315 8.01869 -2.04797 82.05295 -0.82532 73.42310 -4.37728 27.23071 104.58875 16.56834 11.55488 8.61496 15.96359 -2.50123 -6.43032 -31.14367 4.83258 63.53510 5.28064 0.00140 0.00142 9.16151 -20.76549 -62.46906 -31.34204 2.92197 11.38157 47.84884 20.04756 -33.53260 -27.72470 0.01676 0.00278 6.32221 -26.76921 7.66508 
13.55786 90.30403 -56.37196 12.16740 6.28218 127.06280 -8.48829 28.86934 6.17485 0.00183 0.00405 -0.00261 -14.17453 21.06632 13.09650 -1.26637 7.62363 -0.89279 -140.73862 -62.53347 -117.78401 -18.13903 61.94075 -97.74397 16.72543 8.44719 -5.59756 18.17832 8.01747 -1.69023 82.56638 -1.27105 74.00439 -4.96588 27.21623 105.23114 16.57013 11.48049 8.51583 15.89560 -2.80603 -5.42516 -30.92575 5.66116 61.95920 6.13057 0.00223 0.00031 8.39894 -20.60128 -62.25274 -31.21739 1.89936 11.42273 47.55928 21.03338 -33.74878 -27.23082 0.01710 0.00403 6.42295 -26.14372 8.07451 
13.20672 90.47858 -56.39643 12.14457 6.14567 127.64822 -8.24438 28.87833 5.67424 0.00186 0.00462 -0.00166 -13.54375 20.98287 12.94068 -0.98015 7.53757 -0.51467 -140.32454 -61.66247 -117.43106 -17.60686 61.96020 -98.22543 16.82918 8.48985 -5.27810 18.22991 8.04594 -1.30066 83.06869 -1.71050 74.61054 -5.56334 27.18766 105.81099 16.56861 11.40813 8.42131 15.79930 -3.15154 -4.62956 -30.59451 6.36850 60.43524 6.94752 0.00274 -0.00066 7.67858 -20.29372 -61.97478 -31.04116 1.09620 11.54190 47.25526 21.86097 -33.92580 -26.70465 0.01685 0.00499 6.49288 -25.49458 8.47971 
12.91961 90.64227 -56.38011 12.10116 6.01554 128.29225 -7.94471 28.83773 5.11621 0.00176 0.00510 -0.00098 -12.96610 20.94186 12.80138 -0.75754 7.47255 -0.14092 -139.94514 -60.78308 -117.06862 -17.04850 62.00742 -98.71593 16.90813 8.57413 -4.94158 18.21955 8.09365 -0.89536 83.56260 -2.13440 75.21983 -6.17069 27.14683 106.33202 16.56784 11.33119 8.34742 15.67532 -3.49705 -4.04815 -30.16645 6.95510 58.96067 7.71558 0.00286 -0.00133 6.98154 -19.85679 -61.65400 -30.83174 0.80275 12.84086 48.30232 23.01735 -34.50371 -30.57820 0.16722 0.04252 10.31434 -26.53963 7.51123 
